<svg xmlns="http://www.w3.org/2000/svg" width="26.275" height="24.499" viewBox="0 0 26.275 24.499">
  <g id="Layer_1" transform="translate(0.25 0.25)">
    <path id="Path_228899" data-name="Path 228899" d="M26.775,15.043a2.651,2.651,0,0,0-2.685-2.609H23.016V10.869A9.012,9.012,0,0,0,13.887,2a9.012,9.012,0,0,0-9.128,8.869v1.565H3.685A2.651,2.651,0,0,0,1,15.043v3.13a2.651,2.651,0,0,0,2.685,2.609H6.907V12.435H5.833V10.869a7.952,7.952,0,0,1,8.055-7.826,7.952,7.952,0,0,1,8.055,7.826v1.565H20.868v8.348h1.074v2.609a1.59,1.59,0,0,1-1.611,1.565h-5.37V26h5.37a2.651,2.651,0,0,0,2.685-2.609V20.782H24.09a2.651,2.651,0,0,0,2.685-2.609Zm-20.942,4.7H3.685a1.59,1.59,0,0,1-1.611-1.565v-3.13a1.59,1.59,0,0,1,1.611-1.565H5.833ZM25.7,18.174a1.59,1.59,0,0,1-1.611,1.565H21.942V13.478H24.09A1.59,1.59,0,0,1,25.7,15.043Z" transform="translate(-1 -2)" fill="#1f1f45" stroke="#1f1f45" stroke-width="0.5"/>
  </g>
</svg>
