<svg xmlns="http://www.w3.org/2000/svg" width="23.502" height="23.501" viewBox="0 0 23.502 23.501">
  <g id="Page-1" transform="translate(0.75 0.75)">
    <g id="Artboard-Copy">
      <path id="grid" d="M356.374,255A1.376,1.376,0,0,0,355,256.375v6.875a1.376,1.376,0,0,0,1.376,1.375h6.875a1.376,1.376,0,0,0,1.375-1.375v-6.875A1.376,1.376,0,0,0,363.25,255Zm0,12.376A1.376,1.376,0,0,0,355,268.75v6.875A1.377,1.377,0,0,0,356.374,277h6.875a1.376,1.376,0,0,0,1.375-1.375V268.75a1.375,1.375,0,0,0-1.375-1.375ZM368.75,255a1.376,1.376,0,0,0-1.375,1.376v6.875a1.376,1.376,0,0,0,1.375,1.375h6.875A1.375,1.375,0,0,0,377,263.25v-6.875A1.375,1.375,0,0,0,375.625,255Zm0,12.376a1.375,1.375,0,0,0-1.375,1.375v6.875A1.376,1.376,0,0,0,368.75,277h6.875A1.376,1.376,0,0,0,377,275.625V268.75a1.375,1.375,0,0,0-1.375-1.375Z" transform="translate(-354.998 -254.999)" fill="none" stroke="#1f1f45" stroke-width="1.5" fill-rule="evenodd"/>
    </g>
  </g>
</svg>
