<svg id="_9044820_notification_new_icon" data-name="9044820_notification_new_icon" xmlns="http://www.w3.org/2000/svg" width="24" height="24" viewBox="0 0 24 24">
  <path id="Path_228887" data-name="Path 228887" d="M22.378,14.966V12.689H20.693V15.33a.9.9,0,0,0,.247.622l2.281,2.383v1.4H4.685v-1.4l2.281-2.383a.9.9,0,0,0,.247-.622V11.809a7.093,7.093,0,0,1,3.368-6.1,6.479,6.479,0,0,1,6.742.014l1.343-.75-.251-.638-1.091-.58a15.04,15.04,0,0,0-2.528-.7H13.11a8.679,8.679,0,0,0-7.583,8.758v3.157L3.247,17.349A.9.9,0,0,0,3,17.971v2.641a.862.862,0,0,0,.843.88h5.9v.88a4.31,4.31,0,0,0,4.213,4.4,4.31,4.31,0,0,0,4.213-4.4v-.88h5.9a.862.862,0,0,0,.843-.88V17.971a.9.9,0,0,0-.247-.622Zm-5.9,7.407a2.53,2.53,0,1,1-5.055,0v-.88H16.48Z" transform="translate(-1.953 -3.051)" fill="#1f1f45"/>
  <circle id="Ellipse_368" data-name="Ellipse 368" cx="4.5" cy="4.5" r="4.5" transform="translate(14 1)" fill="#007dff"/>
  <rect id="_Transparent_Rectangle_" data-name="&lt;Transparent Rectangle&gt;" width="24" height="24" fill="none"/>
</svg>
