<svg xmlns="http://www.w3.org/2000/svg" width="25.7" height="25.7" viewBox="0 0 25.7 25.7">
  <g id="settings-gears" transform="translate(0.849 -3.887)">
    <path id="Path_6080" data-name="Path 6080" d="M2.659,19.37a9.861,9.861,0,0,0,.882,2.094L2.477,22.807a1.1,1.1,0,0,0,.083,1.46L4.393,26.1a1.1,1.1,0,0,0,1.46.083l1.334-1.056a9.688,9.688,0,0,0,2.176.921l.2,1.716a1.1,1.1,0,0,0,1.09.973h2.593a1.1,1.1,0,0,0,1.09-.973l.191-1.655a9.8,9.8,0,0,0,2.333-.943l1.29,1.021a1.1,1.1,0,0,0,1.46-.083l1.833-1.833a1.1,1.1,0,0,0,.083-1.46l-1-1.273a9.576,9.576,0,0,0,.96-2.294l1.546-.178A1.1,1.1,0,0,0,24,17.975V15.381a1.1,1.1,0,0,0-.973-1.091L21.5,14.113a9.638,9.638,0,0,0-.921-2.268l.938-1.186a1.1,1.1,0,0,0-.083-1.46L19.609,7.37a1.1,1.1,0,0,0-1.46-.083L17,8.2a9.667,9.667,0,0,0-2.385-1L14.44,5.71a1.1,1.1,0,0,0-1.09-.973H10.757a1.1,1.1,0,0,0-1.09.973L9.492,7.2A9.626,9.626,0,0,0,7.047,8.235L5.852,7.287a1.1,1.1,0,0,0-1.46.083L2.56,9.2a1.1,1.1,0,0,0-.083,1.46l1,1.264a9.452,9.452,0,0,0-.9,2.29l-1.6.182A1.1,1.1,0,0,0,0,15.49v2.594a1.1,1.1,0,0,0,.973,1.091Zm9.4-7.017a4.288,4.288,0,1,1-4.287,4.288A4.294,4.294,0,0,1,12.055,12.353Z" transform="translate(0 0)" fill="none" stroke="#1f1f45" stroke-width="1.7"/>
  </g>
</svg>
