<svg xmlns="http://www.w3.org/2000/svg" width="25.117" height="25" viewBox="0 0 25.117 25">
  <g id="TabBar-Icons" transform="translate(0.558 0.5)">
    <g id="Customers">
      <path id="User" d="M24,25H0c.716-6.466,5.816-11.478,12-11.478S23.283,18.535,24,25ZM1.44,23.957a10.633,10.633,0,0,1,21.12,0ZM12,12.478a5.524,5.524,0,0,0,5.28-5.739A5.524,5.524,0,0,0,12,1,5.524,5.524,0,0,0,6.72,6.739,5.524,5.524,0,0,0,12,12.478Zm0-1.043a4.52,4.52,0,0,1-4.32-4.7A4.52,4.52,0,0,1,12,2.043a4.52,4.52,0,0,1,4.32,4.7A4.52,4.52,0,0,1,12,11.435Z" transform="translate(0 -1)" fill="#1f1f45" stroke="#1f1f45" stroke-width="1" fill-rule="evenodd"/>
    </g>
  </g>
</svg>
